#!OML:ASF E:\Style4\Style4.ASF
:FULLY-SPECIFIED
:DEGREES
2757
root -0.0187861 17.5251 -0.878587 -0.550711 0.107703 2.98357
lowerback 5.65829 2.34154 -0.61583
upperback 1.33531 3.07975 -0.0730818
thorax -1.82245 1.53863 0.0498667
lowerneck -2.56245 -5.01988 -6.08373
upperneck 9.13618 -6.65183 3.07267
head 3.79492 -3.3836 1.80843
rclavicle -1.51076e-014 7.15625e-015
rhumerus -53.2247 16.4851 -92.6603
rradius 102.352
rwrist 14.3492
rhand -38.8917 39.1835
rfingers 7.12502
rthumb -11.8992 9.54165
lclavicle -1.51076e-014 7.15625e-015
lhumerus -55.8948 -27.8055 98.6455
lradius 99.609
lwrist -11.7633
lhand -29.1822 20.258
lfingers 7.12502
lthumb -2.52766 50.2228
rfemur -13.6173 2.08948 15.3974
rtibia 38.3365
rfoot -22.835 -12.1024
rtoes -11.7684
lfemur -11.7847 -2.41855 -21.8966
ltibia 34.9967
lfoot -22.593 7.59475
ltoes -15.079
2758
root -0.018895 17.5239 -0.878455 -0.558321 0.120209 2.9555
lowerback 5.60838 2.34927 -0.567965
upperback 1.3387 3.09293 -0.0889657
thorax -1.78783 1.54503 0.00832656
lowerneck -2.52236 -5.03088 -6.04876
upperneck 9.11304 -6.67266 3.09448
head 3.77943 -3.39208 1.80953
rclavicle -1.86112e-014 9.54166e-015
rhumerus -53.1519 16.4916 -92.6875
rradius 102.173
rwrist 14.1956
rhand -38.965 39.3933
rfingers 7.12502
rthumb -11.9699 9.75559
lclavicle -1.86112e-014 9.54166e-015
lhumerus -55.7778 -27.9204 98.6503
lradius 99.2619
lwrist -11.625
lhand -29.3534 19.5908
lfingers 7.12502
lthumb -2.69304 49.5535
rfemur -13.6185 2.05182 15.43
rtibia 38.361
rfoot -22.8526 -12.1097
rtoes -11.7201
lfemur -11.797 -2.42067 -21.8643
ltibia 35.027
lfoot -22.5745 7.57089
ltoes -15.0933
2759
root -0.0219746 17.5232 -0.876048 -0.515367 0.173882 3.01186
lowerback 5.50839 2.34707 -0.678338
upperback 1.32227 3.08441 -0.0977062
thorax -1.75428 1.54124 0.0655365
lowerneck -2.53113 -5.0431 -6.04526
upperneck 9.13501 -6.68948 3.09767
head 3.7898 -3.40023 1.80881
rclavicle -1.01629e-014 -3.97569e-016
rhumerus -53.0864 16.5043 -92.6655
rradius 101.942
rwrist 14.1476
rhand -38.9796 39.6975
rfingers 7.12502
rthumb -11.984 10.0606
lclavicle -1.01629e-014 -3.97569e-016
lhumerus -55.6637 -27.9937 98.7106
lradius 98.8541
lwrist -11.4592
lhand -29.2875 19.4599
lfingers 7.12502
lthumb -2.62936 49.4235
rfemur -13.6699 2.02025 15.3738
rtibia 38.4058
rfoot -22.8778 -12.0928
rtoes -11.4017
lfemur -11.8314 -2.44282 -21.9122
ltibia 35.0284
lfoot -22.6422 7.44373
ltoes -14.4732
2760
root -0.0285691 17.525 -0.870418 -0.3851 0.207553 3.03804
lowerback 5.28326 2.36414 -0.799068
upperback 1.29754 3.10291 -0.0870842
thorax -1.6613 1.55096 0.151885
lowerneck -2.55262 -5.06886 -6.07169
upperneck 9.1212 -6.72251 3.11322
head 3.79298 -3.41662 1.81672
rclavicle 4.4652e-014 -5.96354e-015
rhumerus -53.0557 16.4615 -92.5884
rradius 101.744
rwrist 14.1693
rhand -39.0115 39.8429
rfingers 7.12502
rthumb -12.0147 10.2078
lclavicle 4.4652e-014 -5.96354e-015
lhumerus -55.5697 -28.0934 98.8397
lradius 98.4031
lwrist -11.3121
lhand -29.4152 19.3224
lfingers 7.12502
lthumb -2.7527 49.2844
rfemur -13.8094 2.02939 15.3707
rtibia 38.4535
rfoot -22.8741 -12.1411
rtoes -11.4805
lfemur -11.9526 -2.42682 -21.9055
ltibia 35.0262
lfoot -22.6476 7.34941
ltoes -14.2257
2761
root -0.0340304 17.5251 -0.868252 -0.246023 0.0379273 3.0609
lowerback 5.07196 2.42821 -0.918149
upperback 1.26827 3.18426 -0.0845631
thorax -1.58096 1.59194 0.224261
lowerneck -2.49252 -5.0746 -6.13641
upperneck 9.00315 -6.73668 3.20841
head 3.74842 -3.42212 1.8618
rclavicle 2.31087e-014 7.55382e-015
rhumerus -52.9869 16.5322 -92.5658
rradius 101.44
rwrist 13.9912
rhand -38.9461 39.5789
rfingers 7.12502
rthumb -11.9517 9.94011
lclavicle 2.31087e-014 7.55382e-015
lhumerus -55.4467 -28.1505 98.9051
lradius 97.9219
lwrist -11.1828
lhand -29.6009 19.1732
lfingers 7.12502
lthumb -2.93201 49.1328
rfemur -13.9997 2.17722 15.3596
rtibia 38.4967
rfoot -22.9069 -12.1466
rtoes -11.6371
lfemur -12.0637 -2.2706 -21.9051
ltibia 35.0136
lfoot -22.6251 7.35881
ltoes -14.2312
2762
root -0.0367747 17.5244 -0.869157 -0.18419 -0.0827511 3.05874
lowerback 4.97546 2.4652 -0.99689
upperback 1.23958 3.23084 -0.0678839
thorax -1.56246 1.61551 0.285842
lowerneck -2.42314 -5.0785 -6.22005
upperneck 8.91486 -6.74811 3.30109
head 3.71336 -3.42732 1.90961
rclavicle 1.18028e-014 3.57812e-015
rhumerus -52.8025 16.7909 -92.5678
rradius 100.815
rwrist 13.6123
rhand -38.8953 39.6241
rfingers 7.12502
rthumb -11.9027 9.98246
lclavicle 1.18028e-014 3.57812e-015
lhumerus -55.3274 -28.1465 98.9578
lradius 97.4151
lwrist -11.0908
lhand -29.5867 18.9747
lfingers 7.12502
lthumb -2.91832 48.9345
rfemur -14.0957 2.2842 15.3591
rtibia 38.5266
rfoot -22.9901 -12.0618
rtoes -11.2607
lfemur -12.1072 -2.14491 -21.8947
ltibia 35.0048
lfoot -22.5696 7.39538
ltoes -14.4374
2763
root -0.0336697 17.525 -0.869105 -0.292487 0.132562 3.06532
lowerback 5.06208 2.40274 -0.967448
upperback 1.25598 3.14807 -0.0748965
thorax -1.59083 1.57411 0.264067
lowerneck -2.35631 -5.08941 -6.18404
upperneck 8.80142 -6.76429 3.27309
head 3.65823 -3.43504 1.89502
rclavicle 1.67228e-014 -2.38542e-015
rhumerus -52.5631 17.0742 -92.5167
rradius 100.056
rwrist 13.3297
rhand -38.9672 39.9057
rfingers 7.12502
rthumb -11.9721 10.2681
lclavicle 1.67228e-014 -2.38542e-015
lhumerus -55.1981 -28.2194 99.0393
lradius 96.8419
lwrist -10.9487
lhand -29.4364 18.723
lfingers 7.12502
lthumb -2.77316 48.6848
rfemur -13.9146 2.09283 15.3413
rtibia 38.53
rfoot -23.0921 -12.0346
rtoes -10.9382
lfemur -12.0031 -2.31739 -21.9202
ltibia 34.9979
lfoot -22.5756 7.40559
ltoes -14.6588
2764
root -0.0299241 17.5243 -0.871573 -0.471716 0.307345 3.04081
lowerback 5.24723 2.35438 -0.895822
upperback 1.29548 3.08549 -0.069462
thorax -1.64922 1.54261 0.226567
lowerneck -2.3791 -5.10256 -6.18467
upperneck 8.77321 -6.77821 3.25171
head 3.65244 -3.44234 1.88687
rclavicle 1.16289e-014 -6.36111e-015
rhumerus -52.3573 17.2927 -92.4325
rradius 99.413
rwrist 12.962
rhand -38.9771 40.1019
rfingers 7.12502
rthumb -11.9816 10.4649
lclavicle 1.16289e-014 -6.36111e-015
lhumerus -55.0357 -28.3115 99.1573
lradius 96.2043
lwrist -10.7778
lhand -29.4814 18.5936
lfingers 7.12502
lthumb -2.81668 48.5547
rfemur -13.6829 1.93078 15.3583
rtibia 38.5107
rfoot -23.1285 -11.9774
rtoes -10.8303
lfemur -11.8321 -2.46719 -21.9193
ltibia 34.9816
lfoot -22.5474 7.46962
ltoes -15.037
2765
root -0.0284178 17.5232 -0.87228 -0.56493 0.348798 2.98744
lowerback 5.30728 2.34143 -0.84228
upperback 1.30915 3.07091 -0.0487415
thorax -1.66683 1.53515 0.216615
lowerneck -2.37237 -5.12133 -6.23116
upperneck 8.75808 -6.80261 3.26972
head 3.65045 -3.4553 1.9003
rclavicle -9.49197e-015 4.77083e-015
rhumerus -52.194 17.512 -92.3195
rradius 98.8399
rwrist 12.3131
rhand -38.866 40.3683
rfingers 7.12502
rthumb -11.8744 10.725
lclavicle -9.49197e-015 4.77083e-015
lhumerus -54.8489 -28.3603 99.2541
lradius 95.4691
lwrist -10.6193
lhand -29.6705 18.3336
lfingers 7.12502
lthumb -2.99926 48.2922
rfemur -13.5609 1.92774 15.4201
rtibia 38.4763
rfoot -23.1415 -11.9534
rtoes -10.7308
lfemur -11.7144 -2.54749 -21.8671
ltibia 34.9389
lfoot -22.5561 7.46338
ltoes -14.7788
2766
root -0.0304178 17.5251 -0.866544 -0.545748 0.532573 2.93802
lowerback 5.15972 2.2833 -0.840661
upperback 1.31184 2.99584 -0.0206099
thorax -1.58239 1.49763 0.256121
lowerneck -2.36636 -5.14037 -6.27804
upperneck 8.75696 -6.82887 3.30266
head 3.65442 -3.46874 1.91867
rclavicle -6.08778e-015 -7.95139e-016
rhumerus -52.0097 17.7533 -92.1633
rradius 98.2296
rwrist 11.4083
rhand -38.6181 40.6917
rfingers 7.12502
rthumb -11.6353 11.0348
lclavicle -6.08778e-015 -7.95139e-016
lhumerus -54.6214 -28.3367 99.3389
lradius 94.6449
lwrist -10.415
lhand -29.8218 17.9386
lfingers 7.12502
lthumb -3.1454 47.8951
rfemur -13.5049 1.85869 15.5022
rtibia 38.4516
rfoot -23.2029 -12.0023
rtoes -10.4321
lfemur -11.6913 -2.71495 -21.7911
ltibia 34.8694
lfoot -22.5499 7.39776
ltoes -14.6377
2767
root -0.0309098 17.5292 -0.856744 -0.480435 0.859119 3.00162
lowerback 4.90672 2.19817 -0.914354
upperback 1.31935 2.88121 -0.0523471
thorax -1.43422 1.44037 0.28307
lowerneck -2.38787 -5.17902 -6.31562
upperneck 8.76718 -6.8846 3.38084
head 3.67123 -3.49466 1.94853
rclavicle 1.94809e-014 7.95139e-015
rhumerus -51.7669 17.9606 -91.9793
rradius 97.5657
rwrist 10.3876
rhand -38.4292 40.6397
rfingers 7.12502
rthumb -11.4532 10.9725
lclavicle 1.94809e-014 7.95139e-015
lhumerus -54.3533 -28.4102 99.4351
lradius 93.7172
lwrist -10.0557
lhand -29.9292 17.7191
lfingers 7.12502
lthumb -3.24908 47.6741
rfemur -13.4498 1.63938 15.4405
rtibia 38.4328
rfoot -23.3163 -12.0273
rtoes -10.1294
lfemur -11.7076 -2.98725 -21.8497
ltibia 34.7968
lfoot -22.5452 7.21695
ltoes -13.9171
2768
root -0.0281831 17.5306 -0.85354 -0.46296 1.04282 3.17162
lowerback 4.7961 2.1571 -1.07566
upperback 1.31169 2.81917 -0.107841
thorax -1.38455 1.40965 0.324428
lowerneck -2.463 -5.22563 -6.47985
upperneck 8.88126 -6.95029 3.54474
head 3.7467 -3.52679 2.02794
rclavicle -2.8302e-014 8.34896e-015
rhumerus -51.4589 18.1955 -91.729
rradius 96.852
rwrist 9.29948
rhand -38.1891 40.5706
rfingers 7.12502
rthumb -11.2216 10.8907
lclavicle -2.8302e-014 8.34896e-015
lhumerus -54.1156 -28.4953 99.5744
lradius 92.7641
lwrist -9.56585
lhand -29.929 17.4334
lfingers 7.12502
lthumb -3.24891 47.3884
rfemur -13.4062 1.43222 15.2247
rtibia 38.4057
rfoot -23.3295 -12.0064
rtoes -10.0924
lfemur -11.6934 -3.21628 -22.054
ltibia 34.7481
lfoot -22.5427 7.11902
ltoes -13.0502
2769
root -0.0276644 17.5272 -0.860577 -0.488997 0.906184 3.19411
lowerback 4.91731 2.22086 -1.10522
upperback 1.24788 2.90011 -0.128052
thorax -1.51924 1.45071 0.308514
lowerneck -2.49962 -5.26468 -6.61371
upperneck 8.97229 -7.00431 3.65067
head 3.80177 -3.55447 2.08399
rclavicle 3.77691e-014 -5.56597e-015
rhumerus -51.157 18.421 -91.4075
rradius 96.1079
rwrist 8.12681
rhand -37.8413 40.5887
rfingers 7.12502
rthumb -10.8862 10.8909
lclavicle 3.77691e-014 -5.56597e-015
lhumerus -53.9032 -28.6396 99.7454
lradius 91.8303
lwrist -8.76259
lhand -29.822 17.1497
lfingers 7.12502
lthumb -3.1456 47.1063
rfemur -13.415 1.43516 15.1826
rtibia 38.3136
rfoot -23.1386 -12.0332
rtoes -10.7029
lfemur -11.6645 -3.16283 -22.0925
ltibia 34.7083
lfoot -22.5581 7.15087
ltoes -12.9104
2770
root -0.0301862 17.5273 -0.868835 -0.45065 0.83136 3.04594
lowerback 5.03225 2.25661 -0.994705
upperback 1.13013 2.95132 -0.112435
thorax -1.70032 1.47674 0.251594
lowerneck -2.48714 -5.28226 -6.64566
upperneck 9.02727 -7.03164 3.68869
head 3.82418 -3.56824 2.10131
rclavicle 8.84592e-015 -3.97569e-015
rhumerus -50.8209 18.6936 -91.033
rradius 95.3454
rwrist 6.75731
rhand -37.3255 40.4616
rfingers 7.12502
rthumb -10.3887 10.7383
lclavicle 8.84592e-015 -3.97569e-015
lhumerus -53.6452 -28.8096 99.902
lradius 90.802
lwrist -7.9031
lhand -29.7105 17.18
lfingers 7.12502
lthumb -3.03792 47.1381
rfemur -13.4804 1.50015 15.3672
rtibia 38.2341
rfoot -22.9605 -12.1593
rtoes -11.1503
lfemur -11.7706 -3.09899 -21.919
ltibia 34.735
lfoot -22.5308 7.27944
ltoes -13.7015
